<svg width="138" height="44" viewBox="0 0 138 44" fill="none" xmlns="http://www.w3.org/2000/svg">
<path d="M2.42975 43.0001C2.33642 43.0001 2.25708 42.9674 2.19175 42.9021C2.12642 42.8367 2.09375 42.7574 2.09375 42.6641V33.5501C2.09375 33.4474 2.12175 33.3634 2.17775 33.2981C2.24308 33.2327 2.32708 33.2001 2.42975 33.2001H6.05575C7.20375 33.2001 8.09975 33.4661 8.74375 33.9981C9.39708 34.5301 9.72375 35.2861 9.72375 36.2661C9.72375 36.9474 9.56042 37.5214 9.23375 37.9881C8.90708 38.4454 8.44975 38.7767 7.86175 38.9821L9.89175 42.5521C9.91975 42.6081 9.93375 42.6594 9.93375 42.7061C9.93375 42.7901 9.90108 42.8601 9.83575 42.9161C9.77975 42.9721 9.71442 43.0001 9.63975 43.0001H8.35175C8.20242 43.0001 8.08575 42.9674 8.00175 42.9021C7.91775 42.8274 7.84308 42.7341 7.77775 42.6221L5.98575 39.3041H4.06775V42.6641C4.06775 42.7574 4.03508 42.8367 3.96975 42.9021C3.90442 42.9674 3.82042 43.0001 3.71775 43.0001H2.42975ZM6.01375 37.7081C6.57375 37.7081 6.99375 37.5867 7.27375 37.3441C7.55375 37.0921 7.69375 36.7281 7.69375 36.2521C7.69375 35.7761 7.55375 35.4121 7.27375 35.1601C6.99375 34.8987 6.57375 34.7681 6.01375 34.7681H4.06775V37.7081H6.01375Z" fill="white"/>
<path d="M16.4633 43.0001C16.37 43.0001 16.2907 42.9674 16.2253 42.9021C16.16 42.8367 16.1273 42.7574 16.1273 42.6641V33.5501C16.1273 33.4474 16.1553 33.3634 16.2113 33.2981C16.2767 33.2327 16.3607 33.2001 16.4633 33.2001H22.6373C22.74 33.2001 22.824 33.2327 22.8893 33.2981C22.9547 33.3634 22.9873 33.4474 22.9873 33.5501V34.4881C22.9873 34.5907 22.9547 34.6747 22.8893 34.7401C22.824 34.7961 22.74 34.8241 22.6373 34.8241H18.0453V37.2741H22.3293C22.432 37.2741 22.516 37.3067 22.5813 37.3721C22.6467 37.4374 22.6793 37.5214 22.6793 37.6241V38.5061C22.6793 38.6087 22.6467 38.6927 22.5813 38.7581C22.516 38.8141 22.432 38.8421 22.3293 38.8421H18.0453V41.3761H22.7493C22.852 41.3761 22.936 41.4087 23.0013 41.4741C23.0667 41.5301 23.0993 41.6094 23.0993 41.7121V42.6641C23.0993 42.7667 23.0667 42.8507 23.0013 42.9161C22.936 42.9721 22.852 43.0001 22.7493 43.0001H16.4633Z" fill="white"/>
<path d="M28.848 43.0001C28.764 43.0001 28.694 42.9721 28.638 42.9161C28.582 42.8601 28.554 42.7901 28.554 42.7061L28.582 42.5801L31.942 33.5501C32.0353 33.3167 32.2033 33.2001 32.446 33.2001H33.986C34.2287 33.2001 34.3967 33.3167 34.49 33.5501L37.85 42.5801L37.878 42.7061C37.878 42.7901 37.8453 42.8601 37.78 42.9161C37.724 42.9721 37.6587 43.0001 37.584 43.0001H36.338C36.142 43.0001 36.0067 42.9114 35.932 42.7341L35.288 41.0401H31.144L30.5 42.7341C30.4253 42.9114 30.29 43.0001 30.094 43.0001H28.848ZM31.634 39.4161H34.798L33.216 35.1041L31.634 39.4161Z" fill="white"/>
<path d="M44.1067 43.0001C44.0134 43.0001 43.934 42.9674 43.8687 42.9021C43.8034 42.8367 43.7707 42.7574 43.7707 42.6641V33.5361C43.7707 33.4334 43.8034 33.3541 43.8687 33.2981C43.934 33.2327 44.0134 33.2001 44.1067 33.2001H45.4227C45.5254 33.2001 45.6047 33.2327 45.6607 33.2981C45.726 33.3541 45.7587 33.4334 45.7587 33.5361V41.3201H50.1967C50.2994 41.3201 50.3834 41.3527 50.4487 41.4181C50.514 41.4834 50.5467 41.5627 50.5467 41.6561V42.6641C50.5467 42.7574 50.514 42.8367 50.4487 42.9021C50.3834 42.9674 50.2994 43.0001 50.1967 43.0001H44.1067Z" fill="white"/>
<path d="M64.2715 43.0001C64.1782 43.0001 64.0989 42.9674 64.0335 42.9021C63.9682 42.8367 63.9355 42.7574 63.9355 42.6641V33.5501C63.9355 33.4474 63.9635 33.3634 64.0195 33.2981C64.0849 33.2327 64.1689 33.2001 64.2715 33.2001H70.4455C70.5482 33.2001 70.6322 33.2327 70.6975 33.2981C70.7629 33.3634 70.7955 33.4474 70.7955 33.5501V34.4881C70.7955 34.5907 70.7629 34.6747 70.6975 34.7401C70.6322 34.7961 70.5482 34.8241 70.4455 34.8241H65.8535V37.2741H70.1375C70.2402 37.2741 70.3242 37.3067 70.3895 37.3721C70.4549 37.4374 70.4875 37.5214 70.4875 37.6241V38.5061C70.4875 38.6087 70.4549 38.6927 70.3895 38.7581C70.3242 38.8141 70.2402 38.8421 70.1375 38.8421H65.8535V41.3761H70.5575C70.6602 41.3761 70.7442 41.4087 70.8095 41.4741C70.8749 41.5301 70.9075 41.6094 70.9075 41.7121V42.6641C70.9075 42.7667 70.8749 42.8507 70.8095 42.9161C70.7442 42.9721 70.6602 43.0001 70.5575 43.0001H64.2715Z" fill="white"/>
<path d="M80.6742 43.1401C79.8342 43.1401 79.1155 43.0141 78.5182 42.7621C77.9209 42.5101 77.4682 42.1787 77.1602 41.7681C76.8522 41.3574 76.6889 40.9094 76.6702 40.4241C76.6702 40.3494 76.6982 40.2841 76.7542 40.2281C76.8102 40.1627 76.8802 40.1301 76.9642 40.1301H78.2382C78.3409 40.1301 78.4249 40.1534 78.4902 40.2001C78.5555 40.2467 78.6162 40.3121 78.6722 40.3961C78.7655 40.7134 78.9755 40.9794 79.3022 41.1941C79.6382 41.4087 80.0955 41.5161 80.6742 41.5161C81.3275 41.5161 81.8175 41.4087 82.1442 41.1941C82.4802 40.9701 82.6482 40.6667 82.6482 40.2841C82.6482 40.0321 82.5642 39.8221 82.3962 39.6541C82.2282 39.4861 81.9715 39.3414 81.6262 39.2201C81.2902 39.0894 80.7862 38.9354 80.1142 38.7581C79.0129 38.4967 78.2055 38.1514 77.6922 37.7221C77.1789 37.2927 76.9222 36.6767 76.9222 35.8741C76.9222 35.3327 77.0715 34.8521 77.3702 34.4321C77.6689 34.0027 78.0935 33.6667 78.6442 33.4241C79.2042 33.1814 79.8529 33.0601 80.5902 33.0601C81.3649 33.0601 82.0322 33.1954 82.5922 33.4661C83.1615 33.7367 83.5909 34.0774 83.8802 34.4881C84.1789 34.8894 84.3375 35.2907 84.3562 35.6921C84.3562 35.7667 84.3282 35.8367 84.2722 35.9021C84.2162 35.9581 84.1462 35.9861 84.0622 35.9861H82.7322C82.5269 35.9861 82.3869 35.9021 82.3122 35.7341C82.2655 35.4354 82.0835 35.1881 81.7662 34.9921C81.4489 34.7867 81.0569 34.6841 80.5902 34.6841C80.0769 34.6841 79.6709 34.7821 79.3722 34.9781C79.0829 35.1741 78.9382 35.4587 78.9382 35.8321C78.9382 36.0841 79.0129 36.2941 79.1622 36.4621C79.3115 36.6301 79.5449 36.7794 79.8622 36.9101C80.1795 37.0314 80.6415 37.1714 81.2482 37.3301C82.0789 37.5167 82.7369 37.7267 83.2222 37.9601C83.7169 38.1934 84.0809 38.4874 84.3142 38.8421C84.5475 39.1967 84.6642 39.6494 84.6642 40.2001C84.6642 40.8067 84.4962 41.3341 84.1602 41.7821C83.8335 42.2207 83.3669 42.5567 82.7602 42.7901C82.1629 43.0234 81.4675 43.1401 80.6742 43.1401Z" fill="white"/>
<path d="M93.2369 43.0001C93.1436 43.0001 93.0642 42.9674 92.9989 42.9021C92.9336 42.8367 92.9009 42.7574 92.9009 42.6641V34.9501H90.3109C90.2176 34.9501 90.1382 34.9174 90.0729 34.8521C90.0076 34.7867 89.9749 34.7027 89.9749 34.6001V33.5501C89.9749 33.4474 90.0029 33.3634 90.0589 33.2981C90.1242 33.2327 90.2082 33.2001 90.3109 33.2001H97.4649C97.5676 33.2001 97.6516 33.2327 97.7169 33.2981C97.7822 33.3634 97.8149 33.4474 97.8149 33.5501V34.6001C97.8149 34.7027 97.7822 34.7867 97.7169 34.8521C97.6516 34.9174 97.5676 34.9501 97.4649 34.9501H94.8889V42.6641C94.8889 42.7574 94.8562 42.8367 94.7909 42.9021C94.7349 42.9674 94.6556 43.0001 94.5529 43.0001H93.2369Z" fill="white"/>
<path d="M102.208 43.0001C102.124 43.0001 102.054 42.9721 101.998 42.9161C101.942 42.8601 101.914 42.7901 101.914 42.7061L101.942 42.5801L105.302 33.5501C105.395 33.3167 105.563 33.2001 105.806 33.2001H107.346C107.588 33.2001 107.756 33.3167 107.85 33.5501L111.21 42.5801L111.238 42.7061C111.238 42.7901 111.205 42.8601 111.14 42.9161C111.084 42.9721 111.018 43.0001 110.944 43.0001H109.698C109.502 43.0001 109.366 42.9114 109.292 42.7341L108.648 41.0401H104.504L103.86 42.7341C103.785 42.9114 103.65 43.0001 103.454 43.0001H102.208ZM104.994 39.4161H108.158L106.576 35.1041L104.994 39.4161Z" fill="white"/>
<path d="M118.597 43.0001C118.504 43.0001 118.424 42.9674 118.359 42.9021C118.294 42.8367 118.261 42.7574 118.261 42.6641V34.9501H115.671C115.578 34.9501 115.498 34.9174 115.433 34.8521C115.368 34.7867 115.335 34.7027 115.335 34.6001V33.5501C115.335 33.4474 115.363 33.3634 115.419 33.2981C115.484 33.2327 115.568 33.2001 115.671 33.2001H122.825C122.928 33.2001 123.012 33.2327 123.077 33.2981C123.142 33.3634 123.175 33.4474 123.175 33.5501V34.6001C123.175 34.7027 123.142 34.7867 123.077 34.8521C123.012 34.9174 122.928 34.9501 122.825 34.9501H120.249V42.6641C120.249 42.7574 120.216 42.8367 120.151 42.9021C120.095 42.9674 120.016 43.0001 119.913 43.0001H118.597Z" fill="white"/>
<path d="M129.531 43.0001C129.438 43.0001 129.359 42.9674 129.293 42.9021C129.228 42.8367 129.195 42.7574 129.195 42.6641V33.5501C129.195 33.4474 129.223 33.3634 129.279 33.2981C129.345 33.2327 129.429 33.2001 129.531 33.2001H135.705C135.808 33.2001 135.892 33.2327 135.957 33.2981C136.023 33.3634 136.055 33.4474 136.055 33.5501V34.4881C136.055 34.5907 136.023 34.6747 135.957 34.7401C135.892 34.7961 135.808 34.8241 135.705 34.8241H131.113V37.2741H135.397C135.5 37.2741 135.584 37.3067 135.649 37.3721C135.715 37.4374 135.747 37.5214 135.747 37.6241V38.5061C135.747 38.6087 135.715 38.6927 135.649 38.7581C135.584 38.8141 135.5 38.8421 135.397 38.8421H131.113V41.3761H135.817C135.92 41.3761 136.004 41.4087 136.069 41.4741C136.135 41.5301 136.167 41.6094 136.167 41.7121V42.6641C136.167 42.7667 136.135 42.8507 136.069 42.9161C136.004 42.9721 135.92 43.0001 135.817 43.0001H129.531Z" fill="white"/>
<path d="M2.97578 23C2.76245 23 2.57045 22.9254 2.39978 22.776C2.25045 22.6054 2.17578 22.4134 2.17578 22.2V1.43203C2.17578 1.19736 2.25045 1.00536 2.39978 0.85603C2.54911 0.685363 2.74111 0.600029 2.97578 0.600029H12.0318C14.8051 0.600029 16.9811 1.22936 18.5598 2.48803C20.1384 3.7467 20.9278 5.59203 20.9278 8.02403C20.9278 10.456 20.1384 12.28 18.5598 13.496C16.9811 14.6907 14.8051 15.288 12.0318 15.288H8.38378V22.2C8.38378 22.4134 8.30912 22.6054 8.15978 22.776C8.01045 22.9254 7.81845 23 7.58378 23H2.97578ZM11.8718 10.712C12.7464 10.712 13.4291 10.488 13.9198 10.04C14.4318 9.5707 14.6878 8.88803 14.6878 7.99203C14.6878 7.16003 14.4531 6.48803 13.9838 5.97603C13.5358 5.46403 12.8318 5.20803 11.8718 5.20803H8.28778V10.712H11.8718Z" fill="white"/>
<path d="M23.6945 23C23.4812 23 23.2892 22.9254 23.1185 22.776C22.9692 22.6054 22.8945 22.4134 22.8945 22.2V1.43203C22.8945 1.19736 22.9692 1.00536 23.1185 0.85603C23.2679 0.685363 23.4599 0.600029 23.6945 0.600029H32.4945C35.3105 0.600029 37.5079 1.24003 39.0865 2.52003C40.6865 3.80003 41.4865 5.6027 41.4865 7.92803C41.4865 9.42136 41.1345 10.6907 40.4305 11.736C39.7479 12.7814 38.7985 13.592 37.5825 14.168L41.9025 21.976C41.9665 22.104 41.9985 22.2214 41.9985 22.328C41.9985 22.4987 41.9345 22.6587 41.8065 22.808C41.6785 22.936 41.5185 23 41.3265 23H36.8145C36.1959 23 35.7585 22.712 35.5025 22.136L31.9825 15.192H28.9105V22.2C28.9105 22.4347 28.8252 22.6267 28.6545 22.776C28.5052 22.9254 28.3132 23 28.0785 23H23.6945ZM32.4625 10.488C33.3799 10.488 34.0732 10.264 34.5425 9.81603C35.0332 9.3467 35.2785 8.7067 35.2785 7.89603C35.2785 7.08536 35.0332 6.4347 34.5425 5.94403C34.0732 5.45336 33.3799 5.20803 32.4625 5.20803H28.9105V10.488H32.4625Z" fill="white"/>
<path d="M42.8965 23C42.7259 23 42.5659 22.936 42.4165 22.808C42.2885 22.6587 42.2245 22.4987 42.2245 22.328C42.2245 22.2 42.2352 22.104 42.2565 22.04L49.7125 1.52803C49.9259 0.909363 50.3525 0.600029 50.9925 0.600029H55.9845C56.6245 0.600029 57.0512 0.909363 57.2645 1.52803L64.7205 22.04C64.7419 22.104 64.7525 22.2 64.7525 22.328C64.7525 22.4987 64.6779 22.6587 64.5285 22.808C64.4005 22.936 64.2512 23 64.0805 23H59.9205C59.4085 23 59.0459 22.7654 58.8325 22.296L57.6805 19.192H49.2965L48.1445 22.296C47.9312 22.7654 47.5685 23 47.0565 23H42.8965ZM50.6405 14.392H56.3365L53.4885 6.23203L50.6405 14.392Z" fill="white"/>
<path d="M66.9758 23C66.7624 23 66.5704 22.9254 66.3998 22.776C66.2505 22.6054 66.1758 22.4134 66.1758 22.2V1.43203C66.1758 1.19736 66.2505 1.00536 66.3998 0.85603C66.5491 0.685363 66.7411 0.600029 66.9758 0.600029H82.0798C82.3144 0.600029 82.5064 0.685363 82.6558 0.85603C82.8264 1.00536 82.9118 1.19736 82.9118 1.43203V4.60003C82.9118 4.8347 82.8264 5.0267 82.6558 5.17603C82.5064 5.32536 82.3144 5.40003 82.0798 5.40003H71.9678V9.46403H81.3758C81.6104 9.46403 81.8024 9.54936 81.9518 9.72003C82.1225 9.86936 82.2078 10.0614 82.2078 10.296V13.208C82.2078 13.4427 82.1225 13.6454 81.9518 13.816C81.8024 13.9654 81.6104 14.04 81.3758 14.04H71.9678V18.2H82.3358C82.5704 18.2 82.7625 18.2854 82.9118 18.456C83.0825 18.6054 83.1678 18.7974 83.1678 19.032V22.2C83.1678 22.4347 83.0825 22.6267 82.9118 22.776C82.7625 22.9254 82.5704 23 82.3358 23H66.9758Z" fill="white"/>
<path d="M86.507 23C86.2937 23 86.1017 22.9254 85.931 22.776C85.7817 22.6054 85.707 22.4134 85.707 22.2V1.43203C85.707 1.19736 85.7817 1.00536 85.931 0.85603C86.0804 0.685363 86.2724 0.600029 86.507 0.600029H94.923C98.0804 0.600029 100.534 1.35736 102.283 2.87203C104.032 4.36536 104.95 6.52003 105.035 9.33603C105.056 9.9547 105.067 10.776 105.067 11.8C105.067 12.824 105.056 13.6347 105.035 14.232C104.822 20.0774 101.504 23 95.083 23H86.507ZM94.923 18.2C96.267 18.2 97.259 17.88 97.899 17.24C98.539 16.6 98.8804 15.576 98.923 14.168C98.9657 13.5494 98.987 12.7494 98.987 11.768C98.987 10.7867 98.9657 9.99736 98.923 9.40003C98.8804 8.0347 98.507 7.03203 97.803 6.39203C97.1204 5.7307 96.107 5.40003 94.763 5.40003H91.723V18.2H94.923Z" fill="white"/>
<path d="M108.507 23C108.294 23 108.102 22.9254 107.931 22.776C107.782 22.6054 107.707 22.4134 107.707 22.2V1.40003C107.707 1.16536 107.782 0.973363 107.931 0.82403C108.102 0.674696 108.294 0.600029 108.507 0.600029H113.083C113.318 0.600029 113.51 0.674696 113.659 0.82403C113.808 0.973363 113.883 1.16536 113.883 1.40003V22.2C113.883 22.4134 113.808 22.6054 113.659 22.776C113.51 22.9254 113.318 23 113.083 23H108.507Z" fill="white"/>
<path d="M126.518 23.32C123.489 23.32 121.1 22.584 119.35 21.112C117.601 19.64 116.673 17.4747 116.566 14.616C116.545 14.0187 116.534 13.1014 116.534 11.864C116.534 10.6267 116.545 9.6987 116.566 9.08003C116.652 6.26403 117.58 4.0987 119.35 2.58403C121.142 1.04803 123.532 0.280029 126.518 0.280029C129.484 0.280029 131.852 1.04803 133.622 2.58403C135.414 4.0987 136.353 6.26403 136.438 9.08003C136.481 10.3174 136.502 11.2454 136.502 11.864C136.502 12.504 136.481 13.4214 136.438 14.616C136.332 17.4747 135.404 19.64 133.654 21.112C131.926 22.584 129.548 23.32 126.518 23.32ZM126.518 18.52C127.628 18.52 128.513 18.1894 129.174 17.528C129.836 16.8454 130.188 15.8107 130.23 14.424C130.273 13.1867 130.294 12.3014 130.294 11.768C130.294 11.2347 130.273 10.3707 130.23 9.17603C130.188 7.78936 129.836 6.76536 129.174 6.10403C128.513 5.42136 127.628 5.08003 126.518 5.08003C125.388 5.08003 124.492 5.42136 123.83 6.10403C123.169 6.76536 122.817 7.78936 122.774 9.17603C122.753 9.77336 122.742 10.6374 122.742 11.768C122.742 12.92 122.753 13.8054 122.774 14.424C122.817 15.8107 123.169 16.8454 123.83 17.528C124.492 18.1894 125.388 18.52 126.518 18.52Z" fill="white"/>
</svg>
